STARTFONT 2.1
COMMENT
COMMENT Converted from PICO 8's font by Luna! Released under the CC-0 license.
COMMENT Note: this does not include Japanese characters (yet?).
COMMENT
FONT -FreeType-PICO8wide-Medium-R-Normal--17-120-100-100-P-40-ISO10646-1
SIZE 12 100 100
FONTBOUNDINGBOX 7 5 0 0
STARTPROPERTIES 19
FOUNDRY "FreeType"
FAMILY_NAME "PICO8wide"
WEIGHT_NAME "Medium"
SLANT "R"
SETWIDTH_NAME "Normal"
ADD_STYLE_NAME ""
PIXEL_SIZE 17
POINT_SIZE 120
RESOLUTION_X 100
RESOLUTION_Y 100
SPACING "P"
AVERAGE_WIDTH 40
CHARSET_REGISTRY "ISO10646"
CHARSET_ENCODING "1"
FONT_ASCENT 11
FONT_DESCENT 0
COPYRIGHT "itsactuallyluna9 & Lexaloffle"
_OTF_FONTFILE "PICO8wide.ttf"
_OTF_PSNAME "PICO8wide"
ENDPROPERTIES
CHARS 123
STARTCHAR 0020
ENCODING 32
SWIDTH 300 0
DWIDTH 5 0
BBX 0 0 0 0
BITMAP
ENDCHAR
STARTCHAR 0021
ENCODING 33
SWIDTH 180 0
DWIDTH 3 0
BBX 1 5 1 0
BITMAP
80
80
80
00
80
ENDCHAR
STARTCHAR 0022
ENCODING 34
SWIDTH 240 0
DWIDTH 4 0
BBX 3 2 0 3
BITMAP
A0
A0
ENDCHAR
STARTCHAR 0023
ENCODING 35
SWIDTH 240 0
DWIDTH 4 0
BBX 3 5 0 0
BITMAP
A0
E0
A0
E0
A0
ENDCHAR
STARTCHAR 0024
ENCODING 36
SWIDTH 240 0
DWIDTH 4 0
BBX 3 5 0 0
BITMAP
E0
C0
60
E0
40
ENDCHAR
STARTCHAR 0025
ENCODING 37
SWIDTH 240 0
DWIDTH 4 0
BBX 3 5 0 0
BITMAP
A0
20
40
80
A0
ENDCHAR
STARTCHAR 0026
ENCODING 38
SWIDTH 240 0
DWIDTH 4 0
BBX 3 5 0 0
BITMAP
C0
C0
E0
A0
E0
ENDCHAR
STARTCHAR 0027
ENCODING 39
SWIDTH 180 0
DWIDTH 3 0
BBX 2 2 0 3
BITMAP
40
80
ENDCHAR
STARTCHAR 0028
ENCODING 40
SWIDTH 180 0
DWIDTH 3 0
BBX 2 5 0 0
BITMAP
40
80
80
80
40
ENDCHAR
STARTCHAR 0029
ENCODING 41
SWIDTH 240 0
DWIDTH 4 0
BBX 2 5 1 0
BITMAP
80
40
40
40
80
ENDCHAR
STARTCHAR 002A
ENCODING 42
SWIDTH 240 0
DWIDTH 4 0
BBX 3 5 0 0
BITMAP
A0
40
E0
40
A0
ENDCHAR
STARTCHAR 002B
ENCODING 43
SWIDTH 240 0
DWIDTH 4 0
BBX 3 3 0 1
BITMAP
40
E0
40
ENDCHAR
STARTCHAR 002C
ENCODING 44
SWIDTH 180 0
DWIDTH 3 0
BBX 2 2 0 0
BITMAP
40
80
ENDCHAR
STARTCHAR 002D
ENCODING 45
SWIDTH 240 0
DWIDTH 4 0
BBX 3 1 0 2
BITMAP
E0
ENDCHAR
STARTCHAR 002E
ENCODING 46
SWIDTH 180 0
DWIDTH 3 0
BBX 1 1 1 0
BITMAP
80
ENDCHAR
STARTCHAR 002F
ENCODING 47
SWIDTH 240 0
DWIDTH 4 0
BBX 3 5 0 0
BITMAP
20
40
40
40
80
ENDCHAR
STARTCHAR 0030
ENCODING 48
SWIDTH 240 0
DWIDTH 4 0
BBX 3 5 0 0
BITMAP
E0
A0
A0
A0
E0
ENDCHAR
STARTCHAR 0031
ENCODING 49
SWIDTH 240 0
DWIDTH 4 0
BBX 3 5 0 0
BITMAP
C0
40
40
40
E0
ENDCHAR
STARTCHAR 0032
ENCODING 50
SWIDTH 240 0
DWIDTH 4 0
BBX 3 5 0 0
BITMAP
E0
20
E0
80
E0
ENDCHAR
STARTCHAR 0033
ENCODING 51
SWIDTH 240 0
DWIDTH 4 0
BBX 3 5 0 0
BITMAP
E0
20
60
20
E0
ENDCHAR
STARTCHAR 0034
ENCODING 52
SWIDTH 240 0
DWIDTH 4 0
BBX 3 5 0 0
BITMAP
A0
A0
E0
20
20
ENDCHAR
STARTCHAR 0035
ENCODING 53
SWIDTH 240 0
DWIDTH 4 0
BBX 3 5 0 0
BITMAP
E0
80
E0
20
E0
ENDCHAR
STARTCHAR 0036
ENCODING 54
SWIDTH 240 0
DWIDTH 4 0
BBX 3 5 0 0
BITMAP
80
80
E0
A0
E0
ENDCHAR
STARTCHAR 0037
ENCODING 55
SWIDTH 240 0
DWIDTH 4 0
BBX 3 5 0 0
BITMAP
E0
20
20
20
20
ENDCHAR
STARTCHAR 0038
ENCODING 56
SWIDTH 240 0
DWIDTH 4 0
BBX 3 5 0 0
BITMAP
E0
A0
E0
A0
E0
ENDCHAR
STARTCHAR 0039
ENCODING 57
SWIDTH 240 0
DWIDTH 4 0
BBX 3 5 0 0
BITMAP
E0
A0
E0
20
20
ENDCHAR
STARTCHAR 003A
ENCODING 58
SWIDTH 180 0
DWIDTH 3 0
BBX 1 3 1 1
BITMAP
80
00
80
ENDCHAR
STARTCHAR 003B
ENCODING 59
SWIDTH 180 0
DWIDTH 3 0
BBX 2 4 0 0
BITMAP
40
00
40
80
ENDCHAR
STARTCHAR 003C
ENCODING 60
SWIDTH 240 0
DWIDTH 4 0
BBX 3 5 0 0
BITMAP
20
40
80
40
20
ENDCHAR
STARTCHAR 003D
ENCODING 61
SWIDTH 240 0
DWIDTH 4 0
BBX 3 3 0 1
BITMAP
E0
00
E0
ENDCHAR
STARTCHAR 003E
ENCODING 62
SWIDTH 240 0
DWIDTH 4 0
BBX 3 5 0 0
BITMAP
80
40
20
40
80
ENDCHAR
STARTCHAR 003F
ENCODING 63
SWIDTH 240 0
DWIDTH 4 0
BBX 3 5 0 0
BITMAP
E0
20
60
00
40
ENDCHAR
STARTCHAR 0040
ENCODING 64
SWIDTH 240 0
DWIDTH 4 0
BBX 3 5 0 0
BITMAP
40
A0
A0
80
60
ENDCHAR
STARTCHAR 0041
ENCODING 65
SWIDTH 240 0
DWIDTH 4 0
BBX 3 5 0 0
BITMAP
E0
A0
E0
A0
A0
ENDCHAR
STARTCHAR 0042
ENCODING 66
SWIDTH 240 0
DWIDTH 4 0
BBX 3 5 0 0
BITMAP
E0
A0
C0
A0
E0
ENDCHAR
STARTCHAR 0043
ENCODING 67
SWIDTH 240 0
DWIDTH 4 0
BBX 3 5 0 0
BITMAP
60
80
80
80
60
ENDCHAR
STARTCHAR 0044
ENCODING 68
SWIDTH 240 0
DWIDTH 4 0
BBX 3 5 0 0
BITMAP
C0
A0
A0
A0
E0
ENDCHAR
STARTCHAR 0045
ENCODING 69
SWIDTH 240 0
DWIDTH 4 0
BBX 3 5 0 0
BITMAP
E0
80
C0
80
E0
ENDCHAR
STARTCHAR 0046
ENCODING 70
SWIDTH 240 0
DWIDTH 4 0
BBX 3 5 0 0
BITMAP
E0
80
C0
80
80
ENDCHAR
STARTCHAR 0047
ENCODING 71
SWIDTH 240 0
DWIDTH 4 0
BBX 3 5 0 0
BITMAP
60
80
80
A0
E0
ENDCHAR
STARTCHAR 0048
ENCODING 72
SWIDTH 240 0
DWIDTH 4 0
BBX 3 5 0 0
BITMAP
A0
A0
E0
A0
A0
ENDCHAR
STARTCHAR 0049
ENCODING 73
SWIDTH 240 0
DWIDTH 4 0
BBX 3 5 0 0
BITMAP
E0
40
40
40
E0
ENDCHAR
STARTCHAR 004A
ENCODING 74
SWIDTH 240 0
DWIDTH 4 0
BBX 3 5 0 0
BITMAP
E0
40
40
40
C0
ENDCHAR
STARTCHAR 004B
ENCODING 75
SWIDTH 240 0
DWIDTH 4 0
BBX 3 5 0 0
BITMAP
A0
A0
C0
A0
A0
ENDCHAR
STARTCHAR 004C
ENCODING 76
SWIDTH 240 0
DWIDTH 4 0
BBX 3 5 0 0
BITMAP
80
80
80
80
E0
ENDCHAR
STARTCHAR 004D
ENCODING 77
SWIDTH 240 0
DWIDTH 4 0
BBX 3 5 0 0
BITMAP
E0
E0
A0
A0
A0
ENDCHAR
STARTCHAR 004E
ENCODING 78
SWIDTH 240 0
DWIDTH 4 0
BBX 3 5 0 0
BITMAP
C0
A0
A0
A0
A0
ENDCHAR
STARTCHAR 004F
ENCODING 79
SWIDTH 240 0
DWIDTH 4 0
BBX 3 5 0 0
BITMAP
60
A0
A0
A0
C0
ENDCHAR
STARTCHAR 0050
ENCODING 80
SWIDTH 240 0
DWIDTH 4 0
BBX 3 5 0 0
BITMAP
E0
A0
E0
80
80
ENDCHAR
STARTCHAR 0051
ENCODING 81
SWIDTH 240 0
DWIDTH 4 0
BBX 3 5 0 0
BITMAP
40
A0
A0
C0
60
ENDCHAR
STARTCHAR 0052
ENCODING 82
SWIDTH 240 0
DWIDTH 4 0
BBX 3 5 0 0
BITMAP
E0
A0
C0
A0
A0
ENDCHAR
STARTCHAR 0053
ENCODING 83
SWIDTH 240 0
DWIDTH 4 0
BBX 3 5 0 0
BITMAP
60
80
E0
20
C0
ENDCHAR
STARTCHAR 0054
ENCODING 84
SWIDTH 240 0
DWIDTH 4 0
BBX 3 5 0 0
BITMAP
E0
40
40
40
40
ENDCHAR
STARTCHAR 0055
ENCODING 85
SWIDTH 240 0
DWIDTH 4 0
BBX 3 5 0 0
BITMAP
A0
A0
A0
A0
60
ENDCHAR
STARTCHAR 0056
ENCODING 86
SWIDTH 240 0
DWIDTH 4 0
BBX 3 5 0 0
BITMAP
A0
A0
A0
E0
40
ENDCHAR
STARTCHAR 0057
ENCODING 87
SWIDTH 240 0
DWIDTH 4 0
BBX 3 5 0 0
BITMAP
A0
A0
A0
E0
E0
ENDCHAR
STARTCHAR 0058
ENCODING 88
SWIDTH 240 0
DWIDTH 4 0
BBX 3 5 0 0
BITMAP
A0
A0
40
A0
A0
ENDCHAR
STARTCHAR 0059
ENCODING 89
SWIDTH 240 0
DWIDTH 4 0
BBX 3 5 0 0
BITMAP
A0
A0
E0
20
E0
ENDCHAR
STARTCHAR 005A
ENCODING 90
SWIDTH 240 0
DWIDTH 4 0
BBX 3 5 0 0
BITMAP
E0
20
40
80
E0
ENDCHAR
STARTCHAR 005B
ENCODING 91
SWIDTH 180 0
DWIDTH 3 0
BBX 2 5 0 0
BITMAP
C0
80
80
80
C0
ENDCHAR
STARTCHAR 005C
ENCODING 92
SWIDTH 240 0
DWIDTH 4 0
BBX 3 5 0 0
BITMAP
80
40
40
40
20
ENDCHAR
STARTCHAR 005D
ENCODING 93
SWIDTH 240 0
DWIDTH 4 0
BBX 2 5 1 0
BITMAP
C0
40
40
40
C0
ENDCHAR
STARTCHAR 005E
ENCODING 94
SWIDTH 240 0
DWIDTH 4 0
BBX 3 2 0 3
BITMAP
40
A0
ENDCHAR
STARTCHAR 005F
ENCODING 95
SWIDTH 240 0
DWIDTH 4 0
BBX 3 1 0 0
BITMAP
E0
ENDCHAR
STARTCHAR 0060
ENCODING 96
SWIDTH 240 0
DWIDTH 4 0
BBX 2 2 1 3
BITMAP
80
40
ENDCHAR
STARTCHAR 0061
ENCODING 97
SWIDTH 240 0
DWIDTH 4 0
BBX 3 4 0 0
BITMAP
E0
A0
E0
A0
ENDCHAR
STARTCHAR 0062
ENCODING 98
SWIDTH 240 0
DWIDTH 4 0
BBX 3 4 0 0
BITMAP
C0
C0
A0
E0
ENDCHAR
STARTCHAR 0063
ENCODING 99
SWIDTH 240 0
DWIDTH 4 0
BBX 3 4 0 0
BITMAP
E0
80
80
E0
ENDCHAR
STARTCHAR 0064
ENCODING 100
SWIDTH 240 0
DWIDTH 4 0
BBX 3 4 0 0
BITMAP
C0
A0
A0
C0
ENDCHAR
STARTCHAR 0065
ENCODING 101
SWIDTH 240 0
DWIDTH 4 0
BBX 3 4 0 0
BITMAP
E0
C0
80
E0
ENDCHAR
STARTCHAR 0066
ENCODING 102
SWIDTH 240 0
DWIDTH 4 0
BBX 3 4 0 0
BITMAP
E0
C0
80
80
ENDCHAR
STARTCHAR 0067
ENCODING 103
SWIDTH 240 0
DWIDTH 4 0
BBX 3 4 0 0
BITMAP
E0
80
A0
E0
ENDCHAR
STARTCHAR 0068
ENCODING 104
SWIDTH 240 0
DWIDTH 4 0
BBX 3 4 0 0
BITMAP
A0
A0
E0
A0
ENDCHAR
STARTCHAR 0069
ENCODING 105
SWIDTH 240 0
DWIDTH 4 0
BBX 3 4 0 0
BITMAP
E0
40
40
E0
ENDCHAR
STARTCHAR 006A
ENCODING 106
SWIDTH 240 0
DWIDTH 4 0
BBX 3 4 0 0
BITMAP
E0
40
40
C0
ENDCHAR
STARTCHAR 006B
ENCODING 107
SWIDTH 240 0
DWIDTH 4 0
BBX 3 4 0 0
BITMAP
A0
C0
A0
A0
ENDCHAR
STARTCHAR 006C
ENCODING 108
SWIDTH 240 0
DWIDTH 4 0
BBX 3 4 0 0
BITMAP
80
80
80
E0
ENDCHAR
STARTCHAR 006D
ENCODING 109
SWIDTH 240 0
DWIDTH 4 0
BBX 3 4 0 0
BITMAP
E0
E0
A0
A0
ENDCHAR
STARTCHAR 006E
ENCODING 110
SWIDTH 240 0
DWIDTH 4 0
BBX 3 4 0 0
BITMAP
C0
A0
A0
A0
ENDCHAR
STARTCHAR 006F
ENCODING 111
SWIDTH 240 0
DWIDTH 4 0
BBX 3 4 0 0
BITMAP
60
A0
A0
C0
ENDCHAR
STARTCHAR 0070
ENCODING 112
SWIDTH 240 0
DWIDTH 4 0
BBX 3 4 0 0
BITMAP
E0
A0
E0
80
ENDCHAR
STARTCHAR 0071
ENCODING 113
SWIDTH 240 0
DWIDTH 4 0
BBX 3 4 0 0
BITMAP
40
A0
C0
60
ENDCHAR
STARTCHAR 0072
ENCODING 114
SWIDTH 240 0
DWIDTH 4 0
BBX 3 4 0 0
BITMAP
E0
A0
C0
A0
ENDCHAR
STARTCHAR 0073
ENCODING 115
SWIDTH 240 0
DWIDTH 4 0
BBX 3 4 0 0
BITMAP
60
80
20
C0
ENDCHAR
STARTCHAR 0074
ENCODING 116
SWIDTH 240 0
DWIDTH 4 0
BBX 3 4 0 0
BITMAP
E0
40
40
40
ENDCHAR
STARTCHAR 0075
ENCODING 117
SWIDTH 240 0
DWIDTH 4 0
BBX 3 4 0 0
BITMAP
A0
A0
A0
60
ENDCHAR
STARTCHAR 0076
ENCODING 118
SWIDTH 240 0
DWIDTH 4 0
BBX 3 4 0 0
BITMAP
A0
A0
E0
40
ENDCHAR
STARTCHAR 0077
ENCODING 119
SWIDTH 240 0
DWIDTH 4 0
BBX 3 4 0 0
BITMAP
A0
A0
E0
E0
ENDCHAR
STARTCHAR 0078
ENCODING 120
SWIDTH 240 0
DWIDTH 4 0
BBX 3 4 0 0
BITMAP
A0
40
A0
A0
ENDCHAR
STARTCHAR 0079
ENCODING 121
SWIDTH 240 0
DWIDTH 4 0
BBX 3 4 0 0
BITMAP
A0
E0
20
E0
ENDCHAR
STARTCHAR 007A
ENCODING 122
SWIDTH 240 0
DWIDTH 4 0
BBX 3 4 0 0
BITMAP
E0
20
80
E0
ENDCHAR
STARTCHAR 007B
ENCODING 123
SWIDTH 240 0
DWIDTH 4 0
BBX 3 5 0 0
BITMAP
60
40
C0
40
60
ENDCHAR
STARTCHAR 007C
ENCODING 124
SWIDTH 180 0
DWIDTH 3 0
BBX 1 5 1 0
BITMAP
80
80
80
80
80
ENDCHAR
STARTCHAR 007D
ENCODING 125
SWIDTH 240 0
DWIDTH 4 0
BBX 3 5 0 0
BITMAP
C0
40
60
40
C0
ENDCHAR
STARTCHAR 007E
ENCODING 126
SWIDTH 240 0
DWIDTH 4 0
BBX 3 3 0 1
BITMAP
20
E0
80
ENDCHAR
STARTCHAR 00A0
ENCODING 160
SWIDTH 300 0
DWIDTH 5 0
BBX 0 0 0 0
BITMAP
ENDCHAR
STARTCHAR 00C0
ENCODING 192
SWIDTH 540 0
DWIDTH 9 0
BBX 7 5 0 0
BITMAP
FE
FE
FE
FE
FE
ENDCHAR
STARTCHAR 00C1
ENCODING 193
SWIDTH 540 0
DWIDTH 9 0
BBX 7 5 0 0
BITMAP
AA
54
AA
54
AA
ENDCHAR
STARTCHAR 00C2
ENCODING 194
SWIDTH 540 0
DWIDTH 9 0
BBX 7 5 0 0
BITMAP
82
FE
BA
BA
7C
ENDCHAR
STARTCHAR 00C3
ENCODING 195
SWIDTH 540 0
DWIDTH 9 0
BBX 7 5 0 0
BITMAP
7C
C6
C6
EE
7C
ENDCHAR
STARTCHAR 00C4
ENCODING 196
SWIDTH 540 0
DWIDTH 9 0
BBX 7 5 0 0
BITMAP
88
22
88
22
88
ENDCHAR
STARTCHAR 00C5
ENCODING 197
SWIDTH 420 0
DWIDTH 7 0
BBX 5 5 1 0
BITMAP
40
78
70
F0
10
ENDCHAR
STARTCHAR 00C6
ENCODING 198
SWIDTH 420 0
DWIDTH 7 0
BBX 5 5 1 0
BITMAP
70
E8
F8
F8
70
ENDCHAR
STARTCHAR 00C7
ENCODING 199
SWIDTH 420 0
DWIDTH 7 0
BBX 5 5 1 0
BITMAP
D8
F8
F8
70
20
ENDCHAR
STARTCHAR 00C8
ENCODING 200
SWIDTH 540 0
DWIDTH 9 0
BBX 7 5 0 0
BITMAP
38
6C
EE
6C
38
ENDCHAR
STARTCHAR 00C9
ENCODING 201
SWIDTH 420 0
DWIDTH 7 0
BBX 5 5 1 0
BITMAP
70
70
F8
70
50
ENDCHAR
STARTCHAR 00CA
ENCODING 202
SWIDTH 540 0
DWIDTH 9 0
BBX 7 5 0 0
BITMAP
38
7C
FE
54
5C
ENDCHAR
STARTCHAR 00CB
ENCODING 203
SWIDTH 540 0
DWIDTH 9 0
BBX 7 5 0 0
BITMAP
7C
E6
C6
E6
7C
ENDCHAR
STARTCHAR 00CC
ENCODING 204
SWIDTH 540 0
DWIDTH 9 0
BBX 7 5 0 0
BITMAP
FE
BA
FE
82
FE
ENDCHAR
STARTCHAR 00CD
ENCODING 205
SWIDTH 420 0
DWIDTH 7 0
BBX 5 5 1 0
BITMAP
38
20
20
E0
E0
ENDCHAR
STARTCHAR 00CE
ENCODING 206
SWIDTH 540 0
DWIDTH 9 0
BBX 7 5 0 0
BITMAP
7C
C6
D6
C6
7C
ENDCHAR
STARTCHAR 00CF
ENCODING 207
SWIDTH 420 0
DWIDTH 7 0
BBX 5 5 1 0
BITMAP
20
70
F8
70
20
ENDCHAR
STARTCHAR 00D0
ENCODING 208
SWIDTH 540 0
DWIDTH 9 0
BBX 7 1 0 2
BITMAP
AA
ENDCHAR
STARTCHAR 00D1
ENCODING 209
SWIDTH 540 0
DWIDTH 9 0
BBX 7 5 0 0
BITMAP
7C
CE
C6
CE
7C
ENDCHAR
STARTCHAR 00D2
ENCODING 210
SWIDTH 540 0
DWIDTH 9 0
BBX 7 5 0 0
BITMAP
10
38
FE
7C
44
ENDCHAR
STARTCHAR 00D3
ENCODING 211
SWIDTH 420 0
DWIDTH 7 0
BBX 5 5 1 0
BITMAP
F8
70
20
70
F8
ENDCHAR
STARTCHAR 00D4
ENCODING 212
SWIDTH 540 0
DWIDTH 9 0
BBX 7 5 0 0
BITMAP
7C
EE
C6
C6
7C
ENDCHAR
STARTCHAR 00D5
ENCODING 213
SWIDTH 540 0
DWIDTH 9 0
BBX 7 3 0 1
BITMAP
A0
4A
04
ENDCHAR
STARTCHAR 00D6
ENCODING 214
SWIDTH 540 0
DWIDTH 9 0
BBX 7 3 0 1
BITMAP
88
54
22
ENDCHAR
STARTCHAR 00D7
ENCODING 215
SWIDTH 540 0
DWIDTH 9 0
BBX 7 5 0 0
BITMAP
7C
D6
EE
D6
7C
ENDCHAR
STARTCHAR 00D8
ENCODING 216
SWIDTH 540 0
DWIDTH 9 0
BBX 7 5 0 0
BITMAP
FE
00
FE
00
FE
ENDCHAR
STARTCHAR 00D9
ENCODING 217
SWIDTH 540 0
DWIDTH 9 0
BBX 7 5 0 0
BITMAP
AA
AA
AA
AA
AA
ENDCHAR
STARTCHAR uniFFFD
ENCODING 65533
SWIDTH 640 0
DWIDTH 4 0
BBX 4 6 0 -1
BITMAP
F0
90
D0
F0
D0
F0
ENDCHAR
ENDFONT
